<?xml version="1.0" encoding="UTF-8"?>
<svg version="1.1" xmlns="http://www.w3.org/2000/svg" width="512" height="512">
<path d="M0 0 C0.78408078 -0.00538554 1.56816157 -0.01077108 2.37600237 -0.01631981 C4.99997909 -0.03061277 7.62345228 -0.02349247 10.24745178 -0.01637268 C12.13005987 -0.02207555 14.0126645 -0.02903949 15.89526367 -0.03717041 C21.00682747 -0.05512606 26.11821983 -0.0539289 31.22980571 -0.04822803 C35.49681225 -0.04513967 39.76378569 -0.05122469 44.03078753 -0.05726677 C54.096852 -0.07131829 64.16283162 -0.06974547 74.22889709 -0.05836487 C84.61440416 -0.04688259 94.99965302 -0.0609598 105.38512605 -0.08776134 C114.30161354 -0.10991059 123.21801994 -0.11655748 132.13453299 -0.11068493 C137.46004103 -0.10731235 142.78538354 -0.10975046 148.11086845 -0.12693596 C153.11863942 -0.14239061 158.12602758 -0.1384659 163.13378334 -0.11963081 C164.97119447 -0.11594085 166.80863387 -0.11906524 168.64601898 -0.1295166 C171.15548685 -0.1427006 173.66368255 -0.13120279 176.1730957 -0.11352539 C176.89927013 -0.1231304 177.62544455 -0.1327354 178.37362427 -0.14263147 C183.41443563 -0.06962892 186.25805089 1.23866194 190.15003967 4.38768005 C194.20634365 9.61027863 193.92401511 15.04108148 193.15003967 21.38768005 C190.9828778 25.96279957 188.74071954 28.3289731 184.15003967 30.38768005 C180.53776406 30.75013438 176.96318204 30.67014315 173.33753967 30.57518005 C172.3584967 30.5616449 171.37945374 30.54810974 170.3707428 30.53416443 C167.96327342 30.49893317 165.55694403 30.4496727 163.15003967 30.38768005 C162.99970329 51.16450191 162.91911036 71.94058125 162.91944504 92.71796799 C162.91800961 102.36742443 162.89454813 112.01585015 162.81752014 121.6650238 C162.75036646 130.08449463 162.72628493 138.50285402 162.75194478 146.92257142 C162.76405607 151.37303743 162.75594877 155.82121138 162.69608307 160.27133942 C162.29269374 187.04942132 162.29269374 187.04942132 174.57942104 210.37235165 C177.31977202 213.888614 179.57747105 217.71338925 181.90003967 221.51268005 C182.89810874 223.08469407 183.89665958 224.65640256 184.89613342 226.2275238 C188.64107096 232.14223016 192.30115837 238.10851714 195.96253967 244.07518005 C201.15525892 252.53588024 206.37810097 260.97610797 211.65003967 269.38768005 C217.54012388 278.78684958 223.36558206 288.22421136 229.16957092 297.67674255 C233.62999883 304.93468155 238.12643919 312.16896601 242.65003967 319.38768005 C248.53724452 328.78241957 254.36100788 338.21463141 260.16078186 347.66355896 C264.70179012 355.05458628 269.28972535 362.41473242 273.90003967 369.76268005 C306.96631453 422.59166043 306.96631453 422.59166043 300.15003967 455.38768005 C295.14683406 474.94795126 283.33610075 491.74770028 266.15003967 502.38768005 C253.15775824 509.73253595 240.21380209 512.8577887 225.28504944 512.76863098 C224.05804856 512.77331095 222.83104769 512.77799093 221.56686497 512.78281271 C218.20068149 512.79262696 214.83500851 512.78920599 211.46885729 512.77985406 C207.8232511 512.77301595 204.17768685 512.78356819 200.53208923 512.79179382 C193.40602326 512.80508297 186.28005247 512.80227503 179.15398288 512.7935559 C173.35872544 512.78676069 167.56349454 512.78587055 161.76823425 512.78912735 C160.94114065 512.78958705 160.11404704 512.79004675 159.26188999 512.79052038 C157.58128444 512.79147962 155.90067889 512.79245227 154.22007334 512.79343815 C138.48785518 512.80197793 122.75568959 512.79218013 107.02348006 512.77603705 C93.54578351 512.76263516 80.06816451 512.76496365 66.59046936 512.77879333 C50.91175404 512.79487416 35.23308471 512.80115409 19.5543623 512.79195654 C17.8801899 512.79100097 16.2060175 512.79005786 14.53184509 512.78912735 C13.70827611 512.78866452 12.88470713 512.7882017 12.03618151 512.78772485 C6.25276266 512.78514246 0.46937316 512.78948969 -5.31404114 512.79656601 C-12.36908167 512.80500908 -19.42402217 512.80264218 -26.47905135 512.78672378 C-30.07363113 512.77887862 -33.66804455 512.77568468 -37.26262283 512.78567123 C-41.17016452 512.7963625 -45.07743808 512.78353492 -48.98497009 512.76863098 C-50.10552009 512.77532315 -51.22607008 512.78201531 -52.38057613 512.78891027 C-63.12266278 512.7098444 -73.44235607 510.78004642 -82.97496033 505.70018005 C-83.64599792 505.35132751 -84.31703552 505.00247498 -85.00840759 504.64305115 C-104.47952834 494.26808144 -116.9767255 478.28881759 -123.49449158 457.3134613 C-129.23314252 436.29926468 -124.66577152 415.15341152 -114.22496033 396.46580505 C-110.75954378 390.43059482 -106.99702229 384.58272064 -103.24449158 378.72361755 C-99.43327655 372.76205358 -95.7353672 366.7324575 -92.03746033 360.70018005 C-86.84516004 352.23922546 -81.62189645 343.79924802 -76.34996033 335.38768005 C-71.14308023 327.07874134 -65.98074778 318.74381745 -60.84996033 310.38768005 C-55.10964481 301.03884898 -49.31984512 291.72278041 -43.49449158 282.42674255 C-38.90973371 275.10266394 -34.37120976 267.75110757 -29.84996033 260.38768005 C-24.71917214 252.03154145 -19.55672909 243.6966894 -14.34996033 235.38768005 C-8.89504675 226.68180691 -3.48233951 217.95100592 1.90003967 209.20018005 C2.58002014 208.09480896 3.26000061 206.98943787 3.96058655 205.85057068 C6.5593192 201.62157917 6.5593192 201.62157917 9.15003967 197.38768005 C9.66922376 196.64884992 10.18840784 195.91001978 10.72332478 195.14880085 C12.474325 191.76009078 12.53402498 189.44267407 12.54876709 185.63626099 C12.55541392 184.97045338 12.56206074 184.30464577 12.56890899 183.61866218 C12.58751092 181.395271 12.58493572 179.1724193 12.58241272 176.94895935 C12.59143163 175.35217531 12.60175917 173.7553982 12.61329651 172.15863037 C12.64087758 167.82846776 12.65015252 163.49843647 12.65615058 159.16819739 C12.66553136 154.64111103 12.69173452 150.11412288 12.71615601 145.58709717 C12.75983283 137.01661906 12.78837253 128.44616 12.81147939 119.87560445 C12.83852471 110.11745566 12.88243664 100.35940561 12.92776811 90.6013273 C13.02063134 70.53016466 13.09230441 50.45897246 13.15003967 30.38768005 C12.2429425 30.41910095 12.2429425 30.41910095 11.31752014 30.45115662 C8.55353196 30.53476951 5.78981054 30.58648059 3.02503967 30.63768005 C2.07371155 30.67119568 1.12238342 30.7047113 0.14222717 30.73924255 C-5.88746549 30.82298829 -9.2616777 30.40570404 -13.84996033 26.38768005 C-17.90626431 21.16508148 -17.62393576 15.73427863 -16.84996033 9.38768005 C-13.2150143 1.71390511 -8.09728282 -0.0668104 0 0 Z M43.15003967 30.38768005 C43.21707092 42.6440863 43.28410217 54.90049255 43.35316467 67.52830505 C43.36888598 75.3213421 43.38154793 83.11418823 43.38050842 90.9072113 C43.37942396 103.2603117 43.39035831 115.61251314 43.4825592 127.96531677 C43.54967397 136.96488382 43.57380971 145.96341143 43.54813457 154.96320891 C43.53601462 159.72102044 43.54419076 164.47668815 43.60399628 169.23418427 C44.04638783 206.5413571 44.04638783 206.5413571 31.7206583 221.41112423 C28.9526769 224.89450947 26.71300083 228.71890444 24.40003967 232.51268005 C23.40197061 234.08469407 22.40341977 235.65640256 21.40394592 237.2275238 C17.65900839 243.14223016 13.99892098 249.10851714 10.33753967 255.07518005 C5.14482043 263.53588024 -0.07802162 271.97610797 -5.34996033 280.38768005 C-10.55684042 288.69661877 -15.71917287 297.03154265 -20.84996033 305.38768005 C-26.59027584 314.73651113 -32.38007554 324.0525797 -38.20542908 333.34861755 C-42.79018695 340.67269617 -47.32871089 348.02425254 -51.84996033 355.38768005 C-56.98075612 363.74383104 -62.14442296 372.07789169 -67.34996033 380.38768005 C-68.57407798 382.34721595 -69.7980351 384.30685215 -71.02183533 386.2665863 C-73.01252385 389.45387209 -75.00680224 392.63875107 -77.0120697 395.81687927 C-78.86005384 398.74588136 -80.69866139 401.68059554 -82.53184509 404.61888123 C-83.56819713 406.2744388 -84.61420612 407.92393906 -85.6605072 409.57322693 C-93.13160165 421.58007211 -96.86691744 433.29004992 -93.59996033 447.38768005 C-90.22773488 459.73188148 -83.28850381 469.33304506 -72.23667908 476.1415863 C-61.23533776 481.88533079 -50.7305018 482.53990622 -38.5589447 482.50120544 C-37.34833374 482.50135147 -36.13772278 482.5014975 -34.89042664 482.50164795 C-31.59346761 482.50107339 -28.29655183 482.49608105 -24.99960136 482.48907399 C-21.54562953 482.48279454 -18.09165672 482.48223304 -14.63768005 482.48104858 C-8.10723401 482.47794875 -1.57680485 482.46975363 4.95363379 482.45969909 C12.39261134 482.44849597 19.83158972 482.44301695 27.27057362 482.43800366 C42.56374038 482.42756981 57.85688393 482.4092412 73.15003967 482.38768005 C73.15003967 467.20768005 73.15003967 452.02768005 73.15003967 436.38768005 C67.54003967 434.40768005 61.93003967 432.42768005 56.15003967 430.38768005 C47.64229048 426.0099062 40.91616113 421.1193975 34.15003967 414.38768005 C33.4513678 413.72381287 32.75269592 413.05994568 32.03285217 412.3759613 C18.27560343 398.32429673 13.4239378 378.60249618 13.61976624 359.49290466 C14.73110371 326.25924017 35.43333523 296.12001967 56.15003967 271.38768005 C56.66953186 270.76667419 57.18902405 270.14566833 57.72425842 269.50584412 C77.01776126 246.58048831 77.01776126 246.58048831 84.15003967 244.38768005 C90.45213509 243.88751375 94.61482007 244.45602098 99.70301819 248.67552185 C101.33611258 250.20589304 102.90587026 251.77966095 104.46253967 253.38768005 C105.0315802 253.96727478 105.60062073 254.54686951 106.18690491 255.14402771 C111.18446862 260.29756679 115.71009465 265.74917602 120.15003967 271.38768005 C121.09161001 272.53032014 122.03576768 273.67083155 122.98207092 274.80955505 C138.95798247 294.15058888 153.81069218 316.88695865 160.15003967 341.38768005 C160.32970276 342.04848572 160.50936584 342.70929138 160.69447327 343.39012146 C165.85159598 363.90400959 161.91714059 385.45784501 151.36097717 403.51707458 C147.97282918 408.75094352 143.6264604 413.08760317 139.15003967 417.38768005 C138.56738342 417.97807068 137.98472717 418.5684613 137.38441467 419.17674255 C127.79324581 428.2350687 115.41397073 432.29970303 103.15003967 436.38768005 C103.15003967 451.56768005 103.15003967 466.74768005 103.15003967 482.38768005 C119.11038527 482.43293886 135.07067949 482.46973416 151.03107071 482.4913044 C158.44282082 482.50158889 165.85452804 482.51559473 173.26625061 482.53855896 C179.73113115 482.55857987 186.19598061 482.571417 192.66089129 482.57585704 C196.07962823 482.57844979 199.49827629 482.58448391 202.91698456 482.59914017 C206.74634991 482.61374533 210.57553358 482.61565421 214.40492249 482.61473083 C215.52127075 482.62192139 216.63761902 482.62911194 217.78779602 482.63652039 C233.08891443 482.5968282 246.85527225 479.85466605 258.21253967 468.95018005 C266.78559219 459.5500427 271.58648116 448.61771794 271.36488342 435.71580505 C270.2241664 423.35458055 264.46759164 413.10222136 257.83753967 402.88768005 C256.77357604 401.2258558 255.71116134 399.56303917 254.65003967 397.8993988 C254.0854303 397.01429626 253.52082092 396.12919373 252.93910217 395.2172699 C249.68838018 390.07591238 246.51674497 384.88594872 243.33753967 379.70018005 C238.14520858 371.23924411 232.921976 362.79924834 227.65003967 354.38768005 C221.75995546 344.98851053 215.93449729 335.55114875 210.13050842 326.09861755 C205.67008052 318.84067856 201.17364016 311.6063941 196.65003967 304.38768005 C190.76002946 294.98846375 184.93449774 285.55114948 179.13050842 276.09861755 C174.67008022 268.84067807 170.17359463 261.60642302 165.65003967 254.38768005 C158.41755424 242.84468321 151.18597547 231.29256363 144.17056274 219.61585522 C142.21538591 216.40266921 142.21538591 216.40266921 140.06860352 213.55712605 C133.62998248 204.42055703 133.00950021 197.00019844 133.15003967 186.0309906 C133.14241683 184.32464262 133.13128398 182.61830731 133.11694336 180.91200256 C133.08814034 176.31946396 133.1079076 171.72831384 133.13695908 167.13582587 C133.15896562 162.32181677 133.13552586 157.50802419 133.11708069 152.69403076 C133.0890367 143.59592018 133.10136533 134.4983387 133.12850475 125.40024358 C133.16285455 113.09347918 133.1342193 100.7868676 133.1092701 88.48010731 C133.07166023 69.1156907 133.11766735 49.75239907 133.15003967 30.38768005 C103.45003967 30.38768005 73.75003967 30.38768005 43.15003967 30.38768005 Z M85.40785217 284.01268005 C65.46456296 306.22059185 42.54097529 336.02004456 43.76722717 367.1415863 C44.5685657 378.53420104 50.31093645 388.0710662 58.58753967 395.70018005 C65.09699669 401.35387915 65.09699669 401.35387915 73.15003967 403.38768005 C73.15590591 402.80996353 73.16177216 402.23224701 73.16781616 401.63702393 C73.23180322 395.61828542 73.31623661 389.600079 73.41249084 383.58177185 C73.44572318 381.33640055 73.47376036 379.09094605 73.49647522 376.84544373 C73.53005169 373.61567263 73.5823704 370.38666279 73.63832092 367.1572113 C73.64790581 365.6538195 73.64790581 365.6538195 73.65768433 364.12005615 C73.84192936 355.36492517 73.84192936 355.36492517 77.15003967 351.38768005 C80.81421497 348.55289578 83.56076952 347.97755809 88.15003967 348.01268005 C89.16066467 348.00494568 90.17128967 347.9972113 91.21253967 347.98924255 C95.48965812 348.56938362 98.00456536 350.0105095 100.7625885 353.32640076 C102.82742628 357.88226929 102.63020573 362.20816333 102.66175842 367.1572113 C102.67970963 368.19335068 102.69766083 369.22949005 102.71615601 370.29702759 C102.77022654 373.59803734 102.8041449 376.89890274 102.83753967 380.20018005 C102.87071555 382.44173658 102.90520546 384.68327407 102.9410553 386.92478943 C103.02595108 392.41229019 103.09431481 397.89980971 103.15003967 403.38768005 C111.53710102 401.90263478 118.20161511 396.17860411 123.54847717 389.7040863 C131.662458 377.9684994 134.29325807 365.3811302 131.78382874 351.33836365 C130.67935308 346.85272293 129.00254938 342.60759307 127.15003967 338.38768005 C126.87659729 337.75684509 126.60315491 337.12601013 126.32142639 336.47605896 C118.82639628 319.58997245 107.84775718 304.58679627 96.15003967 290.38768005 C95.07496155 289.08057068 95.07496155 289.08057068 93.97816467 287.74705505 C91.66488473 284.97158953 91.66488473 284.97158953 89.15003967 282.38768005 C86.99673034 282.16031854 86.99673034 282.16031854 85.40785217 284.01268005 Z " fill="#3FD3A2" transform="translate(167.84996032714844,-0.3876800537109375)"/>
</svg>
